<svg width="128mm" height="128mm" version="1.1" viewBox="0 0 128 128" xmlns="http://www.w3.org/2000/svg">
	<defs>
		<filter id="g" x="-.048" y="-.048" width="1.096" height="1.096" color-interpolation-filters="sRGB">
			<feGaussianBlur stdDeviation="2.477876"/>
		</filter>
		<filter id="a" x="-.055545" y="-.07406" width="1.1111" height="1.1481" color-interpolation-filters="sRGB">
			<feGaussianBlur stdDeviation="1.8514963"/>
		</filter>
		<filter id="f" x="-.065625" y="-.0875" width="1.1313" height="1.175" color-interpolation-filters="sRGB">
			<feGaussianBlur stdDeviation="2.1874956"/>
		</filter>
		<filter id="e" x="-.12863" y="-.1715" width="1.2573" height="1.343" color-interpolation-filters="sRGB">
			<feGaussianBlur stdDeviation="4.2874914"/>
		</filter>
		<filter id="d" x="-.048236" y="-.092811" width="1.0965" height="1.1856" color-interpolation-filters="sRGB">
			<feGaussianBlur stdDeviation="4.4103294"/>
		</filter>
		<filter id="c" x="-.1117" y="-.21492" width="1.2234" height="1.4298" color-interpolation-filters="sRGB">
			<feGaussianBlur stdDeviation="10.212956"/>
		</filter>
		<filter id="b" x="-.1117" y="-.21492" width="1.2234" height="1.4298" color-interpolation-filters="sRGB">
			<feGaussianBlur stdDeviation="10.212956"/>
		</filter>
	</defs>
	<rect transform="matrix(.904 0 0 .904 .81754 .81754)" x="8.5161" y="8.5161" width="123.89" height="123.89" ry="35.398" fill="#220054" filter="url(#g)" stroke-miterlimit="2" stroke-width="0" style="paint-order:stroke fill markers"/>
	<path d="m29 34c-2.77 0-5.0002 2.2302-5.0002 5.0002v50c0 2.77 2.2302 5.0002 5.0002 5.0002h69.999c2.77 0 5.0002-2.2302 5.0002-5.0002v-50c0-2.77-2.2302-5.0002-5.0002-5.0002zm0.4997 0.99994h69c2.77 0 4.5 1.7301 4.5 4.5001l-9e-5 49c-1e-5 2.77-1.7299 4.5-4.4999 4.5h-69c-2.77 0-4.5-1.73-4.5-4.5v-49c0-2.77 1.73-4.5001 4.5-4.5001z" fill="#00ffce" filter="url(#e)" stroke-miterlimit="2" stroke-width="0" style="paint-order:stroke fill markers"/>
	<path transform="matrix(.26458 0 0 .26458 1.097 7.0745)" d="m122.25 182.86 2.496-7.392 41.472 17.568v7.68l-41.472 17.568-2.496-7.392 34.08-14.016zm71.328 37.536q0 2.592-1.728 4.512t-4.704 1.92-4.704-1.92-1.728-4.512 1.728-4.512 4.704-1.92 4.704 1.92 1.728 4.512zm31.968 0q0 2.592-1.728 4.512t-4.704 1.92-4.704-1.92-1.728-4.512 1.728-4.512 4.704-1.92 4.704 1.92 1.728 4.512zm31.968 0q0 2.592-1.728 4.512t-4.704 1.92-4.704-1.92-1.728-4.512 1.728-4.512 4.704-1.92 4.704 1.92 1.728 4.512zm8.4703 29.184v-114.05h75.703v114.05z" fill="#ff7000" filter="url(#b)" style="white-space:pre" aria-label="&gt;…█"/>
	<path d="m29 34c-2.77 0-5.0002 2.2302-5.0002 5.0002v50c0 2.77 2.2302 5.0002 5.0002 5.0002h69.999c2.77 0 5.0002-2.2302 5.0002-5.0002v-50c0-2.77-2.2302-5.0002-5.0002-5.0002zm0.4997 0.99994h69c2.77 0 4.5 1.7301 4.5 4.5001l-9e-5 49c-1e-5 2.77-1.7299 4.5-4.4999 4.5h-69c-2.77 0-4.5-1.73-4.5-4.5v-49c0-2.77 1.73-4.5001 4.5-4.5001z" fill="#41ffda" filter="url(#f)" stroke-miterlimit="2" stroke-width="0" style="paint-order:stroke fill markers"/>
	<path transform="matrix(.26458 0 0 .26458 1.097 7.0745)" d="m122.25 182.86 2.496-7.392 41.472 17.568v7.68l-41.472 17.568-2.496-7.392 34.08-14.016zm71.328 37.536q0 2.592-1.728 4.512t-4.704 1.92-4.704-1.92-1.728-4.512 1.728-4.512 4.704-1.92 4.704 1.92 1.728 4.512zm31.968 0q0 2.592-1.728 4.512t-4.704 1.92-4.704-1.92-1.728-4.512 1.728-4.512 4.704-1.92 4.704 1.92 1.728 4.512zm31.968 0q0 2.592-1.728 4.512t-4.704 1.92-4.704-1.92-1.728-4.512 1.728-4.512 4.704-1.92 4.704 1.92 1.728 4.512zm8.4703 29.184v-114.05h75.703v114.05z" fill="#ff9541" filter="url(#c)" style="white-space:pre" aria-label="&gt;…█"/>
	<path d="m29 34c-2.77 0-5.0002 2.2302-5.0002 5.0002v50c0 2.77 2.2302 5.0002 5.0002 5.0002h69.999c2.77 0 5.0002-2.2302 5.0002-5.0002v-50c0-2.77-2.2302-5.0002-5.0002-5.0002zm0.4997 0.99994h69c2.77 0 4.5 1.7301 4.5 4.5001l-9e-5 49c-1e-5 2.77-1.7299 4.5-4.4999 4.5h-69c-2.77 0-4.5-1.73-4.5-4.5v-49c0-2.77 1.73-4.5001 4.5-4.5001z" fill="#81ffe6" filter="url(#a)" stroke-miterlimit="2" stroke-width="0" style="paint-order:stroke fill markers"/>
	<path transform="matrix(.26458 0 0 .26458 1.097 7.0745)" d="m122.25 182.86 2.496-7.392 41.472 17.568v7.68l-41.472 17.568-2.496-7.392 34.08-14.016zm71.328 37.536q0 2.592-1.728 4.512t-4.704 1.92-4.704-1.92-1.728-4.512 1.728-4.512 4.704-1.92 4.704 1.92 1.728 4.512zm31.968 0q0 2.592-1.728 4.512t-4.704 1.92-4.704-1.92-1.728-4.512 1.728-4.512 4.704-1.92 4.704 1.92 1.728 4.512zm31.968 0q0 2.592-1.728 4.512t-4.704 1.92-4.704-1.92-1.728-4.512 1.728-4.512 4.704-1.92 4.704 1.92 1.728 4.512zm8.4703 29.184v-114.05h75.703v114.05z" fill="#ffb981" filter="url(#d)" style="white-space:pre" aria-label="&gt;…█"/>
	<path d="m29 34c-2.77 0-5.0002 2.2302-5.0002 5.0002v50c0 2.77 2.2302 5.0002 5.0002 5.0002h69.999c2.77 0 5.0002-2.2302 5.0002-5.0002v-50c0-2.77-2.2302-5.0002-5.0002-5.0002zm0.4997 0.99994h69c2.77 0 4.5 1.7301 4.5 4.5001l-9e-5 49c-1e-5 2.77-1.7299 4.5-4.4999 4.5h-69c-2.77 0-4.5-1.73-4.5-4.5v-49c0-2.77 1.73-4.5001 4.5-4.5001z" fill="#c1fff3" stroke-miterlimit="2" stroke-width="0" style="paint-order:stroke fill markers"/>
	<path transform="matrix(.26458 0 0 .26458 1.097 7.0745)" d="m122.25 182.86 2.496-7.392 41.472 17.568v7.68l-41.472 17.568-2.496-7.392 34.08-14.016zm71.328 37.536q0 2.592-1.728 4.512t-4.704 1.92-4.704-1.92-1.728-4.512 1.728-4.512 4.704-1.92 4.704 1.92 1.728 4.512zm31.968 0q0 2.592-1.728 4.512t-4.704 1.92-4.704-1.92-1.728-4.512 1.728-4.512 4.704-1.92 4.704 1.92 1.728 4.512zm31.968 0q0 2.592-1.728 4.512t-4.704 1.92-4.704-1.92-1.728-4.512 1.728-4.512 4.704-1.92 4.704 1.92 1.728 4.512zm8.4703 29.184v-114.05h75.703v114.05z" fill="#ffdcc1" style="white-space:pre" aria-label="&gt;…█"/>
</svg>
